<svg width="100" height="15" viewBox="0 0 100 15" fill="none" xmlns="http://www.w3.org/2000/svg">
<path d="M25.16 6.188V7.412C25.16 9.548 23.888 11.168 21.416 11.168C18.956 11.168 17.672 9.548 17.672 7.412V6.188C17.672 4.052 18.956 2.432 21.416 2.432C23.888 2.432 25.16 4.052 25.16 6.188ZM21.416 9.776C22.82 9.776 23.48 8.828 23.48 7.496V6.104C23.48 4.772 22.82 3.824 21.416 3.824C20.012 3.824 19.352 4.772 19.352 6.104V7.496C19.352 8.828 20.012 9.776 21.416 9.776ZM30.0479 4.616C31.7639 4.616 32.6759 5.888 32.6759 7.364V8.396C32.6759 9.896 31.7399 11.144 30.0599 11.144C29.2319 11.144 28.5959 10.808 28.2719 10.328V13.088H26.6399V4.76H28.1999V5.504C28.5119 5.024 29.1479 4.616 30.0479 4.616ZM29.6519 5.936C28.8239 5.936 28.2719 6.56 28.2719 7.436V8.348C28.2719 9.296 28.8959 9.824 29.6399 9.824C30.5639 9.824 31.0439 9.2 31.0439 8.324V7.436C31.0439 6.608 30.5999 5.936 29.6519 5.936ZM36.639 11.144C34.875 11.144 33.735 10.112 33.735 8.36V7.508C33.735 5.816 34.743 4.616 36.615 4.616C38.463 4.616 39.399 5.852 39.399 7.352V8.444H35.319V8.6C35.319 9.332 35.691 9.968 36.639 9.968C37.335 9.968 37.767 9.608 37.923 9.176H39.351C39.135 10.316 38.019 11.144 36.639 11.144ZM35.319 7.232V7.292H37.899V7.136C37.899 6.356 37.491 5.768 36.615 5.768C35.679 5.768 35.319 6.392 35.319 7.232ZM40.7259 11V4.76H42.2859V5.504C42.5979 4.928 43.2339 4.616 44.1219 4.616C45.4779 4.616 46.3299 5.504 46.3299 7.004V11H44.6979V7.268C44.6979 6.548 44.3499 6.032 43.5579 6.032C42.8259 6.032 42.3579 6.464 42.3579 7.304V11H40.7259ZM51.1171 11V6.08H50.3251V4.76H51.1171V4.184C51.1171 2.816 51.7651 2.24 53.0491 2.24H54.1291V3.536H53.4211C52.9531 3.536 52.7491 3.68 52.7491 4.172V4.76H54.0091V6.08H52.7491V11H51.1171ZM57.6047 11.144C55.7327 11.144 54.6647 9.92 54.6647 8.324V7.436C54.6647 5.84 55.7327 4.616 57.6047 4.616C59.4767 4.616 60.5447 5.84 60.5447 7.436V8.324C60.5447 9.92 59.4767 11.144 57.6047 11.144ZM58.9607 8.432V7.328C58.9607 6.512 58.5287 5.9 57.6047 5.9C56.6807 5.9 56.2487 6.512 56.2487 7.328V8.432C56.2487 9.248 56.6807 9.86 57.6047 9.86C58.5287 9.86 58.9607 9.248 58.9607 8.432ZM61.8782 11V4.76H63.4262V5.972C63.6302 5.036 64.3622 4.712 65.2982 4.712H65.4902V6.332H65.1542C64.0862 6.332 63.5102 6.86 63.5102 8.12V11H61.8782ZM77.9197 4.76L76.2997 11H74.7757L73.4077 6.704L72.0397 11H70.5157L68.8957 4.76H70.4797L71.3917 8.948L72.6637 4.76H74.1517L75.4237 8.948L76.3357 4.76H77.9197ZM81.4993 11.144C79.6273 11.144 78.5593 9.92 78.5593 8.324V7.436C78.5593 5.84 79.6273 4.616 81.4993 4.616C83.3713 4.616 84.4393 5.84 84.4393 7.436V8.324C84.4393 9.92 83.3713 11.144 81.4993 11.144ZM82.8553 8.432V7.328C82.8553 6.512 82.4233 5.9 81.4993 5.9C80.5753 5.9 80.1433 6.512 80.1433 7.328V8.432C80.1433 9.248 80.5753 9.86 81.4993 9.86C82.4233 9.86 82.8553 9.248 82.8553 8.432ZM85.7728 11V4.76H87.3208V5.972C87.5248 5.036 88.2568 4.712 89.1928 4.712H89.3848V6.332H89.0488C87.9808 6.332 87.4048 6.86 87.4048 8.12V11H85.7728ZM90.4954 11V2.24H92.1274V7.664L94.1074 4.76H95.9674L93.8194 7.808L96.0394 11H94.1794L92.1274 7.952V11H90.4954ZM97.5388 8.576L97.1428 5.924V2.6H98.8468V5.924L98.4508 8.576H97.5388ZM97.0588 10.16C97.0588 9.608 97.4308 9.224 97.9948 9.224C98.5588 9.224 98.9308 9.608 98.9308 10.16C98.9308 10.712 98.5588 11.096 97.9948 11.096C97.4308 11.096 97.0588 10.712 97.0588 10.16Z" fill="black"/>
<circle cx="7" cy="7" r="6.5" fill="#5ED055" stroke="#FFF7F7"/>
</svg>
