<svg width="812" height="96" viewBox="0 0 812 96" fill="none" xmlns="http://www.w3.org/2000/svg">
<circle cx="46.5" cy="46.5" r="46.5" fill="#7CFDA8"/>
<path d="M144.56 69.12C134.72 69.12 125.92 63.76 124.48 53.12H134.96C135.92 57.28 139.36 60.16 144.56 60.16C151.12 60.16 155.12 55.76 155.12 49.76C155.12 44.08 151.2 39.6 144.88 39.6C140.4 39.6 137.28 41.6 135.6 44.48H125.44L130.72 12H160.72V20.8H139.44L137.12 34.24C139.52 32 143.28 30.72 147.68 30.72C158.08 30.72 165.92 38 165.92 49.44C165.92 60.4 157.12 69.12 144.56 69.12ZM210.661 68.96C200.101 68.96 192.741 64.56 192.741 55.68V54.96H202.341V55.52C202.341 59.12 205.621 61.28 210.741 61.28C215.301 61.28 218.661 59.44 218.661 56.24C218.661 54.24 217.621 53.04 215.221 52.48L202.901 49.68C196.661 48.24 193.381 45.04 193.381 38.72C193.381 30.16 200.341 25.44 210.181 25.44C220.181 25.44 226.661 30.48 226.661 38.72V39.36H217.141V38.64C217.141 35.44 215.141 33.2 210.341 33.2C205.941 33.2 203.541 34.8 203.541 37.76C203.541 39.84 204.581 40.8 206.741 41.28L219.381 44.4C225.541 45.92 228.661 49.2 228.661 55.04C228.661 63.12 220.981 68.96 210.661 68.96ZM237.241 68V9.6H248.121V68H237.241ZM276.87 68.96C264.39 68.96 257.27 60.8 257.27 50.16V44.24C257.27 33.6 264.39 25.44 276.87 25.44C289.35 25.44 296.47 33.6 296.47 44.24V50.16C296.47 60.8 289.35 68.96 276.87 68.96ZM285.91 50.88V43.52C285.91 38.08 283.03 34 276.87 34C270.71 34 267.83 38.08 267.83 43.52V50.88C267.83 56.32 270.71 60.4 276.87 60.4C283.03 60.4 285.91 56.32 285.91 50.88ZM319.293 68C311.293 68 307.533 63.52 307.533 56.16V35.2H301.613V26.4H307.533V15.04H318.493V26.4H327.373V35.2H318.493V55.36C318.493 58.08 319.533 59.2 322.413 59.2H326.813V68H319.293ZM351.676 68.96C341.116 68.96 333.756 64.56 333.756 55.68V54.96H343.356V55.52C343.356 59.12 346.636 61.28 351.756 61.28C356.316 61.28 359.676 59.44 359.676 56.24C359.676 54.24 358.636 53.04 356.236 52.48L343.916 49.68C337.676 48.24 334.396 45.04 334.396 38.72C334.396 30.16 341.356 25.44 351.196 25.44C361.196 25.44 367.676 30.48 367.676 38.72V39.36H358.156V38.64C358.156 35.44 356.156 33.2 351.356 33.2C346.956 33.2 344.556 34.8 344.556 37.76C344.556 39.84 345.596 40.8 347.756 41.28L360.396 44.4C366.556 45.92 369.676 49.2 369.676 55.04C369.676 63.12 361.996 68.96 351.676 68.96ZM414.995 68.96C402.515 68.96 395.395 60.8 395.395 50.16V44.24C395.395 33.6 402.515 25.44 414.995 25.44C427.475 25.44 434.595 33.6 434.595 44.24V50.16C434.595 60.8 427.475 68.96 414.995 68.96ZM424.035 50.88V43.52C424.035 38.08 421.155 34 414.995 34C408.835 34 405.955 38.08 405.955 43.52V50.88C405.955 56.32 408.835 60.4 414.995 60.4C421.155 60.4 424.035 56.32 424.035 50.88ZM466.205 25.44C477.645 25.44 483.725 33.92 483.725 43.76V50.64C483.725 60.64 477.485 68.96 466.285 68.96C460.765 68.96 456.525 66.72 454.365 63.52V81.92H443.485V26.4H453.885V31.36C455.965 28.16 460.205 25.44 466.205 25.44ZM463.565 34.24C458.045 34.24 454.365 38.4 454.365 44.24V50.32C454.365 56.64 458.525 60.16 463.485 60.16C469.645 60.16 472.845 56 472.845 50.16V44.24C472.845 38.72 469.885 34.24 463.565 34.24ZM510.146 68.96C498.386 68.96 490.786 62.08 490.786 50.4V44.72C490.786 33.44 497.506 25.44 509.986 25.44C522.306 25.44 528.546 33.68 528.546 43.68V50.96H501.346V52C501.346 56.88 503.826 61.12 510.146 61.12C514.786 61.12 517.666 58.72 518.706 55.84H528.226C526.786 63.44 519.346 68.96 510.146 68.96ZM501.346 42.88V43.28H518.546V42.24C518.546 37.04 515.826 33.12 509.986 33.12C503.746 33.12 501.346 37.28 501.346 42.88ZM537.391 68V26.4H547.791V31.36C549.871 27.52 554.111 25.44 560.031 25.44C569.071 25.44 574.751 31.36 574.751 41.36V68H563.871V43.12C563.871 38.32 561.551 34.88 556.271 34.88C551.391 34.88 548.271 37.76 548.271 43.36V68H537.391ZM618.746 68C610.746 68 606.986 63.52 606.986 56.16V35.2H601.066V26.4H606.986V15.04H617.946V26.4H626.826V35.2H617.946V55.36C617.946 58.08 618.986 59.2 621.866 59.2H626.266V68H618.746ZM652.729 68.96C640.249 68.96 633.129 60.8 633.129 50.16V44.24C633.129 33.6 640.249 25.44 652.729 25.44C665.209 25.44 672.329 33.6 672.329 44.24V50.16C672.329 60.8 665.209 68.96 652.729 68.96ZM661.769 50.88V43.52C661.769 38.08 658.889 34 652.729 34C646.569 34 643.689 38.08 643.689 43.52V50.88C643.689 56.32 646.569 60.4 652.729 60.4C658.889 60.4 661.769 56.32 661.769 50.88ZM696.899 68.96C685.699 68.96 679.379 60.48 679.379 50.64V43.76C679.379 33.76 685.619 25.44 696.819 25.44C702.339 25.44 706.419 27.76 708.739 30.88V9.6H719.619V68H709.219V63.04C707.139 66.24 702.899 68.96 696.899 68.96ZM699.539 60.16C705.059 60.16 708.739 56 708.739 50.16V44.08C708.739 37.76 704.579 34.24 699.619 34.24C693.459 34.24 690.259 38.4 690.259 44.24V50.16C690.259 55.68 693.219 60.16 699.539 60.16ZM744.36 68.96C735 68.96 728.6 64.08 728.6 56C728.6 46.96 735.4 42.8 745.4 42.8C750.36 42.8 754.04 44.72 755.96 46.32V40.64C755.96 36.8 753.24 33.92 748.76 33.92C745 33.92 742.68 35.6 741.56 37.84H731.48C733.88 29.76 740.36 25.44 749.32 25.44C759.72 25.44 766.84 31.76 766.84 41.44V68H756.36V64.16C754.44 66.96 749.16 68.96 744.36 68.96ZM747.16 61.76C751.96 61.76 755.96 59.12 755.96 55.6C755.96 51.92 752.36 49.76 747.48 49.76C742.36 49.76 739.16 51.84 739.16 55.68C739.16 59.52 742.6 61.76 747.16 61.76ZM792.543 81.92H781.823L785.983 67.84L771.583 26.4H782.463L791.423 56.24L799.903 26.4H810.703L792.543 81.92Z" fill="black"/>
</svg>
