<svg width="938" height="96" viewBox="0 0 938 96" fill="none" xmlns="http://www.w3.org/2000/svg">
<circle cx="46.5" cy="46.5" r="46.5" fill="#7CFDA8"/>
<path d="M133.92 68V23.2L122 27.6V17.84L135.84 12H144.96V68H133.92ZM165.404 68V23.2L153.484 27.6V17.84L167.324 12H176.444V68H165.404ZM222.028 68C214.028 68 210.268 63.52 210.268 56.16V35.2H204.348V26.4H210.268V15.04H221.228V26.4H230.108V35.2H221.228V55.36C221.228 58.08 222.268 59.2 225.148 59.2H229.548V68H222.028ZM238.251 68V26.4H248.571V34.48C249.931 28.24 254.811 26.08 261.051 26.08H262.331V36.88H260.091C252.971 36.88 249.131 40.4 249.131 48.8V68H238.251ZM286.474 68.96C274.714 68.96 267.114 62.08 267.114 50.4V44.72C267.114 33.44 273.834 25.44 286.314 25.44C298.634 25.44 304.874 33.68 304.874 43.68V50.96H277.674V52C277.674 56.88 280.154 61.12 286.474 61.12C291.114 61.12 293.994 58.72 295.034 55.84H304.554C303.114 63.44 295.674 68.96 286.474 68.96ZM277.674 42.88V43.28H294.874V42.24C294.874 37.04 292.154 33.12 286.314 33.12C280.074 33.12 277.674 37.28 277.674 42.88ZM313.719 68V26.4H324.119V31.36C326.199 27.52 330.439 25.44 336.359 25.44C345.399 25.44 351.079 31.36 351.079 41.36V68H340.199V43.12C340.199 38.32 337.879 34.88 332.599 34.88C327.719 34.88 324.599 37.76 324.599 43.36V68H313.719ZM377.056 68.96C365.856 68.96 359.536 60.48 359.536 50.64V43.76C359.536 33.76 365.776 25.44 376.976 25.44C382.496 25.44 386.576 27.76 388.896 30.88V9.6H399.776V68H389.376V63.04C387.296 66.24 383.056 68.96 377.056 68.96ZM379.696 60.16C385.216 60.16 388.896 56 388.896 50.16V44.08C388.896 37.76 384.736 34.24 379.776 34.24C373.616 34.24 370.416 38.4 370.416 44.24V50.16C370.416 55.68 373.376 60.16 379.696 60.16ZM426.676 68.96C416.116 68.96 408.756 64.56 408.756 55.68V54.96H418.356V55.52C418.356 59.12 421.636 61.28 426.756 61.28C431.316 61.28 434.676 59.44 434.676 56.24C434.676 54.24 433.636 53.04 431.236 52.48L418.916 49.68C412.676 48.24 409.396 45.04 409.396 38.72C409.396 30.16 416.356 25.44 426.196 25.44C436.196 25.44 442.676 30.48 442.676 38.72V39.36H433.156V38.64C433.156 35.44 431.156 33.2 426.356 33.2C421.956 33.2 419.556 34.8 419.556 37.76C419.556 39.84 420.596 40.8 422.756 41.28L435.396 44.4C441.556 45.92 444.676 49.2 444.676 55.04C444.676 63.12 436.996 68.96 426.676 68.96ZM486.235 68.96C476.875 68.96 470.475 64.08 470.475 56C470.475 46.96 477.275 42.8 487.275 42.8C492.235 42.8 495.915 44.72 497.835 46.32V40.64C497.835 36.8 495.115 33.92 490.635 33.92C486.875 33.92 484.555 35.6 483.435 37.84H473.355C475.755 29.76 482.235 25.44 491.195 25.44C501.595 25.44 508.715 31.76 508.715 41.44V68H498.235V64.16C496.315 66.96 491.035 68.96 486.235 68.96ZM489.035 61.76C493.835 61.76 497.835 59.12 497.835 55.6C497.835 51.92 494.235 49.76 489.355 49.76C484.235 49.76 481.035 51.84 481.035 55.68C481.035 59.52 484.475 61.76 489.035 61.76ZM534.712 68.96C523.512 68.96 517.192 60.48 517.192 50.64V43.76C517.192 33.76 523.432 25.44 534.632 25.44C540.152 25.44 544.232 27.76 546.552 30.88V9.6H557.432V68H547.032V63.04C544.952 66.24 540.712 68.96 534.712 68.96ZM537.352 60.16C542.872 60.16 546.552 56 546.552 50.16V44.08C546.552 37.76 542.392 34.24 537.432 34.24C531.272 34.24 528.072 38.4 528.072 44.24V50.16C528.072 55.68 531.032 60.16 537.352 60.16ZM583.853 68.96C572.653 68.96 566.333 60.48 566.333 50.64V43.76C566.333 33.76 572.573 25.44 583.773 25.44C589.293 25.44 593.373 27.76 595.693 30.88V9.6H606.573V68H596.173V63.04C594.093 66.24 589.853 68.96 583.853 68.96ZM586.493 60.16C592.013 60.16 595.693 56 595.693 50.16V44.08C595.693 37.76 591.533 34.24 586.573 34.24C580.413 34.24 577.213 38.4 577.213 44.24V50.16C577.213 55.68 580.173 60.16 586.493 60.16ZM634.833 68.96C623.073 68.96 615.473 62.08 615.473 50.4V44.72C615.473 33.44 622.193 25.44 634.673 25.44C646.993 25.44 653.233 33.68 653.233 43.68V50.96H626.033V52C626.033 56.88 628.513 61.12 634.833 61.12C639.473 61.12 642.353 58.72 643.393 55.84H652.913C651.473 63.44 644.033 68.96 634.833 68.96ZM626.033 42.88V43.28H643.233V42.24C643.233 37.04 640.513 33.12 634.673 33.12C628.433 33.12 626.033 37.28 626.033 42.88ZM677.759 68.96C666.559 68.96 660.239 60.48 660.239 50.64V43.76C660.239 33.76 666.479 25.44 677.679 25.44C683.199 25.44 687.279 27.76 689.599 30.88V9.6H700.479V68H690.079V63.04C687.999 66.24 683.759 68.96 677.759 68.96ZM680.399 60.16C685.919 60.16 689.599 56 689.599 50.16V44.08C689.599 37.76 685.439 34.24 680.479 34.24C674.319 34.24 671.119 38.4 671.119 44.24V50.16C671.119 55.68 674.079 60.16 680.399 60.16ZM744.918 68C736.918 68 733.158 63.52 733.158 56.16V35.2H727.238V26.4H733.158V15.04H744.118V26.4H752.998V35.2H744.118V55.36C744.118 58.08 745.158 59.2 748.038 59.2H752.438V68H744.918ZM778.901 68.96C766.421 68.96 759.301 60.8 759.301 50.16V44.24C759.301 33.6 766.421 25.44 778.901 25.44C791.381 25.44 798.501 33.6 798.501 44.24V50.16C798.501 60.8 791.381 68.96 778.901 68.96ZM787.941 50.88V43.52C787.941 38.08 785.061 34 778.901 34C772.741 34 769.861 38.08 769.861 43.52V50.88C769.861 56.32 772.741 60.4 778.901 60.4C785.061 60.4 787.941 56.32 787.941 50.88ZM823.071 68.96C811.871 68.96 805.551 60.48 805.551 50.64V43.76C805.551 33.76 811.791 25.44 822.991 25.44C828.511 25.44 832.591 27.76 834.911 30.88V9.6H845.791V68H835.391V63.04C833.311 66.24 829.071 68.96 823.071 68.96ZM825.711 60.16C831.231 60.16 834.911 56 834.911 50.16V44.08C834.911 37.76 830.751 34.24 825.791 34.24C819.631 34.24 816.431 38.4 816.431 44.24V50.16C816.431 55.68 819.391 60.16 825.711 60.16ZM870.532 68.96C861.172 68.96 854.772 64.08 854.772 56C854.772 46.96 861.572 42.8 871.572 42.8C876.532 42.8 880.212 44.72 882.132 46.32V40.64C882.132 36.8 879.412 33.92 874.932 33.92C871.172 33.92 868.852 35.6 867.732 37.84H857.652C860.052 29.76 866.532 25.44 875.492 25.44C885.892 25.44 893.012 31.76 893.012 41.44V68H882.532V64.16C880.612 66.96 875.332 68.96 870.532 68.96ZM873.332 61.76C878.132 61.76 882.132 59.12 882.132 55.6C882.132 51.92 878.532 49.76 873.652 49.76C868.532 49.76 865.332 51.84 865.332 55.68C865.332 59.52 868.772 61.76 873.332 61.76ZM918.715 81.92H907.995L912.155 67.84L897.755 26.4H908.635L917.595 56.24L926.075 26.4H936.875L918.715 81.92Z" fill="black"/>
</svg>
